<svg xmlns="http://www.w3.org/2000/svg" width="1440" height="900" viewBox="0 0 1440 900">
  <defs>
    <linearGradient id="bg" x1="0%" y1="0%" x2="100%" y2="100%">
      <stop offset="0%" stop-color="#f0f4ff"/>
      <stop offset="100%" stop-color="#f9fafb"/>
    </linearGradient>

    <pattern id="dots" x="0" y="0" width="40" height="40" patternUnits="userSpaceOnUse">
      <circle cx="20" cy="20" r="1.2" fill="#2563eb" fill-opacity="0.12"/>
    </pattern>

    <radialGradient id="orb1" cx="50%" cy="50%" r="50%">
      <stop offset="0%" stop-color="#3b82f6" stop-opacity="0.18"/>
      <stop offset="100%" stop-color="#3b82f6" stop-opacity="0"/>
    </radialGradient>
    <radialGradient id="orb2" cx="50%" cy="50%" r="50%">
      <stop offset="0%" stop-color="#6366f1" stop-opacity="0.13"/>
      <stop offset="100%" stop-color="#6366f1" stop-opacity="0"/>
    </radialGradient>
    <radialGradient id="orb3" cx="50%" cy="50%" r="50%">
      <stop offset="0%" stop-color="#2563eb" stop-opacity="0.10"/>
      <stop offset="100%" stop-color="#2563eb" stop-opacity="0"/>
    </radialGradient>
  </defs>

  <rect width="1440" height="900" fill="url(#bg)"/>
  <rect width="1440" height="900" fill="url(#dots)"/>

  <ellipse cx="260" cy="200" rx="380" ry="320" fill="url(#orb1)"/>
  <ellipse cx="1200" cy="720" rx="420" ry="340" fill="url(#orb2)"/>
  <ellipse cx="1050" cy="280" rx="300" ry="260" fill="url(#orb3)"/>

  <g stroke="#2563eb" stroke-opacity="0.05" stroke-width="1">
    <line x1="900" y1="0" x2="1440" y2="540"/>
    <line x1="960" y1="0" x2="1440" y2="480"/>
    <line x1="1020" y1="0" x2="1440" y2="420"/>
    <line x1="1080" y1="0" x2="1440" y2="360"/>
    <line x1="1140" y1="0" x2="1440" y2="300"/>
    <line x1="1200" y1="0" x2="1440" y2="240"/>
    <line x1="1260" y1="0" x2="1440" y2="180"/>
    <line x1="1320" y1="0" x2="1440" y2="120"/>
    <line x1="1380" y1="0" x2="1440" y2="60"/>
  </g>

  <circle cx="180" cy="680" r="90" fill="none" stroke="#2563eb" stroke-opacity="0.07" stroke-width="1.5"/>
  <circle cx="180" cy="680" r="130" fill="none" stroke="#2563eb" stroke-opacity="0.04" stroke-width="1"/>
  <circle cx="1320" cy="160" r="70" fill="none" stroke="#6366f1" stroke-opacity="0.07" stroke-width="1.5"/>
  <circle cx="1320" cy="160" r="110" fill="none" stroke="#6366f1" stroke-opacity="0.04" stroke-width="1"/>
</svg>
