<svg xmlns="http://www.w3.org/2000/svg" viewBox="0 0 64 64" fill="none">
  
  <path d="M8 44 C8 26 18 18 32 18 C46 18 56 26 56 44 L56 47 C56 49 54 51 52 51 L12 51 C10 51 8 49 8 47 Z" stroke="currentColor" stroke-width="2.5" fill="none" stroke-linejoin="round"></path>
  <path d="M20 33 L26 28" stroke="currentColor" stroke-width="2" stroke-linecap="round"></path>
  <path d="M28 36 L34 31" stroke="currentColor" stroke-width="2" stroke-linecap="round"></path>
  <path d="M36 39 L42 34" stroke="currentColor" stroke-width="2" stroke-linecap="round"></path>
  <path d="M32 18 L32 10" stroke="currentColor" stroke-width="2" stroke-linecap="round"></path>
  <path d="M32 13 C32 13 28 11 26 13" stroke="currentColor" stroke-width="1.75" stroke-linecap="round" fill="none"></path>
  <path d="M32 13 C32 13 36 11 38 13" stroke="currentColor" stroke-width="1.75" stroke-linecap="round" fill="none"></path>
</svg>